ffmpeg version 4.2.4-1ubuntu0.1 Copyright (c) 2000-2020 the FFmpeg developers
  built with gcc 9 (Ubuntu 9.3.0-10ubuntu2)
  configuration: --prefix=/usr --extra-version=1ubuntu0.1 --toolchain=hardened --libdir=/usr/lib/x86_64-linux-gnu --incdir=/usr/include/x86_64-linux-gnu --arch=amd64 --enable-gpl --disable-stripping --enable-avresample --disable-filter=resample --enable-avisynth --enable-gnutls --enable-ladspa --enable-libaom --enable-libass --enable-libbluray --enable-libbs2b --enable-libcaca --enable-libcdio --enable-libcodec2 --enable-libflite --enable-libfontconfig --enable-libfreetype --enable-libfribidi --enable-libgme --enable-libgsm --enable-libjack --enable-libmp3lame --enable-libmysofa --enable-libopenjpeg --enable-libopenmpt --enable-libopus --enable-libpulse --enable-librsvg --enable-librubberband --enable-libshine --enable-libsnappy --enable-libsoxr --enable-libspeex --enable-libssh --enable-libtheora --enable-libtwolame --enable-libvidstab --enable-libvorbis --enable-libvpx --enable-libwavpack --enable-libwebp --enable-libx265 --enable-libxml2 --enable-libxvid --enable-libzmq --enable-libzvbi --enable-lv2 --enable-omx --enable-openal --enable-opencl --enable-opengl --enable-sdl2 --enable-libdc1394 --enable-libdrm --enable-libiec61883 --enable-nvenc --enable-chromaprint --enable-frei0r --enable-libx264 --enable-shared
  libavutil      56. 31.100 / 56. 31.100
  libavcodec     58. 54.100 / 58. 54.100
  libavformat    58. 29.100 / 58. 29.100
  libavdevice    58.  8.100 / 58.  8.100
  libavfilter     7. 57.100 /  7. 57.100
  libavresample   4.  0.  0 /  4.  0.  0
  libswscale      5.  5.100 /  5.  5.100
  libswresample   3.  5.100 /  3.  5.100
  libpostproc    55.  5.100 / 55.  5.100
Routing option strict to both codec and muxer layer
[h264 @ 0x560296664100] Reinit context to 1920x1088, pix_fmt: yuv420p
Input #0, mov,mp4,m4a,3gp,3g2,mj2, from '/var/www/html/project/media/video/original/RA_20220329_INCIDENTISTICA.mp4':
  Metadata:
    major_brand     : mp42
    minor_version   : 0
    compatible_brands: isommp42
    creation_time   : 2022-04-19T09:41:48.000000Z
  Duration: 00:01:39.73, start: 0.000000, bitrate: 12246 kb/s
    Stream #0:0(eng): Audio: aac (LC) (mp4a / 0x6134706D), 48000 Hz, stereo, fltp, 189 kb/s (default)
    Metadata:
      creation_time   : 2022-04-19T09:41:49.000000Z
      handler_name    : Mainconcept MP4 Sound Media Handler
    Stream #0:1(eng): Video: h264 (Main), 1 reference frame (avc1 / 0x31637661), yuv420p(tv, bt709, left), 1920x1080 (1920x1088) [SAR 1:1 DAR 16:9], 12052 kb/s, 29.97 fps, 29.97 tbr, 30k tbn, 59.94 tbc (default)
    Metadata:
      creation_time   : 2022-04-19T09:41:50.000000Z
      handler_name    : Mainconcept MP4 Video Media Handler
      encoder         : AVC Coding
Input #1, png_pipe, from '/var/www/html/project/static/images/templates/logo.png':
  Duration: N/A, bitrate: N/A
    Stream #1:0: Video: png, 1 reference frame, rgba(pc), 1920x1080 [SAR 2835:2835 DAR 16:9], 25 tbr, 25 tbn, 25 tbc
[Parsed_scale_0 @ 0x560296675f80] w:1280 h:720 flags:'bilinear' interl:0
[Parsed_scale_2 @ 0x5602966c3dc0] w:1280 h:720 flags:'bilinear' interl:0
Stream mapping:
  Stream #0:1 (h264) -> scale (graph 0)
  Stream #1:0 (png) -> scale (graph 0)
  overlay (graph 0) -> Stream #0:0 (libx264)
  Stream #0:0 -> #0:1 (aac (native) -> aac (native))
Press [q] to stop, [?] for help
[h264 @ 0x56029670d7c0] Reinit context to 1920x1088, pix_fmt: yuv420p
[graph_1_in_0_0 @ 0x56029718a780] tb:1/48000 samplefmt:fltp samplerate:48000 chlayout:0x3
[Parsed_scale_0 @ 0x5602966c43c0] w:1280 h:720 flags:'bilinear' interl:0
[Parsed_scale_2 @ 0x5602966c5b00] w:1280 h:720 flags:'bilinear' interl:0
[graph 0 input from stream 0:1 @ 0x5602966c7cc0] w:1920 h:1080 pixfmt:yuv420p tb:1/30000 fr:30000/1001 sar:1/1 sws_param:flags=2
[graph 0 input from stream 1:0 @ 0x5602966c8a80] w:1920 h:1080 pixfmt:rgba tb:1/25 fr:25/1 sar:2835/2835 sws_param:flags=2
[Parsed_scale_0 @ 0x5602966c43c0] w:1920 h:1080 fmt:yuv420p sar:1/1 -> w:1280 h:720 fmt:yuv420p sar:1/1 flags:0x2
[Parsed_setsar_1 @ 0x56029674f880] w:1280 h:720 sar:1/1 dar:16/9 -> sar:1/1 dar:16/9
[Parsed_scale_2 @ 0x5602966c5b00] w:1920 h:1080 fmt:rgba sar:2835/2835 -> w:1280 h:720 fmt:yuva420p sar:1/1 flags:0x2
[Parsed_setsar_3 @ 0x5602966c6500] w:1280 h:720 sar:1/1 dar:16/9 -> sar:1/1 dar:16/9
[Parsed_overlay_4 @ 0x5602966c6f40] main w:1280 h:720 fmt:yuv420p overlay w:1280 h:720 fmt:yuva420p
[Parsed_overlay_4 @ 0x5602966c6f40] [framesync @ 0x5602966c7068] Selected 1/30000 time base
[Parsed_overlay_4 @ 0x5602966c6f40] [framesync @ 0x5602966c7068] Sync level 2
[libx264 @ 0x5602966723c0] using SAR=1/1
[libx264 @ 0x5602966723c0] using cpu capabilities: MMX2 SSE2Fast SSSE3 SSE4.2 AVX FMA3 BMI2 AVX2
[libx264 @ 0x5602966723c0] profile High, level 3.1
[libx264 @ 0x5602966723c0] 264 - core 155 r2917 0a84d98 - H.264/MPEG-4 AVC codec - Copyleft 2003-2018 - http://www.videolan.org/x264.html - options: cabac=1 ref=1 deblock=1:0:0 analyse=0x3:0x113 me=hex subme=2 psy=1 psy_rd=1.00:0.00 mixed_ref=0 me_range=16 chroma_me=1 trellis=0 8x8dct=1 cqm=0 deadzone=21,11 fast_pskip=1 chroma_qp_offset=0 threads=22 lookahead_threads=5 sliced_threads=0 nr=0 decimate=1 interlaced=0 bluray_compat=0 constrained_intra=0 bframes=3 b_pyramid=2 b_adapt=1 b_bias=0 direct=1 weightb=1 open_gop=0 weightp=1 keyint=250 keyint_min=25 scenecut=40 intra_refresh=0 rc_lookahead=10 rc=crf mbtree=1 crf=18.0 qcomp=0.60 qpmin=0 qpmax=69 qpstep=4 ip_ratio=1.40 aq=1:1.00
Output #0, mp4, to '/var/www/html/project/media/video/watermarks/RA_20220329_INCIDENTISTICA.mp4':
  Metadata:
    major_brand     : mp42
    minor_version   : 0
    compatible_brands: isommp42
    encoder         : Lavf58.29.100
    Stream #0:0: Video: h264 (libx264), 1 reference frame (avc1 / 0x31637661), yuv420p, 1280x720 [SAR 1:1 DAR 16:9], q=-1--1, 29.97 fps, 30k tbn, 29.97 tbc (default)
    Metadata:
      encoder         : Lavc58.54.100 libx264
    Side data:
      cpb: bitrate max/min/avg: 0/0/0 buffer size: 0 vbv_delay: -1
    Stream #0:1(eng): Audio: aac (LC) (mp4a / 0x6134706D), 48000 Hz, stereo, fltp, delay 1024, 128 kb/s (default)
    Metadata:
      creation_time   : 2022-04-19T09:41:49.000000Z
      handler_name    : Mainconcept MP4 Sound Media Handler
      encoder         : Lavc58.54.100 aac
[Parsed_overlay_4 @ 0x5602966c6f40] [framesync @ 0x5602966c7068] Sync level 0
No more output streams to write to, finishing.
frame= 2989 fps=152 q=-1.0 Lsize=   66216kB time=00:01:39.73 bitrate=5438.9kbits/s speed=5.07x    
[AVIOContext @ 0x5602966600c0] Statistics: 0 seeks, 39 writeouts
video:64585kB audio:1523kB subtitle:0kB other streams:0kB global headers:0kB muxing overhead: 0.163679%
Input file #0 (/var/www/html/project/media/video/original/RA_20220329_INCIDENTISTICA.mp4):
  Input stream #0:0 (audio): 4675 packets read (2361993 bytes); 4675 frames decoded (4787200 samples); 
  Input stream #0:1 (video): 2989 packets read (150250730 bytes); 2989 frames decoded; 
  Total: 7664 packets (152612723 bytes) demuxed
Input file #1 (/var/www/html/project/static/images/templates/logo.png):
  Input stream #1:0 (video): 1 packets read (111578 bytes); 1 frames decoded; 
  Total: 1 packets (111578 bytes) demuxed
Output file #0 (/var/www/html/project/media/video/watermarks/RA_20220329_INCIDENTISTICA.mp4):
  Output stream #0:0 (video): 2989 frames encoded; 2989 packets muxed (66134647 bytes); 
  Output stream #0:1 (audio): 4675 frames encoded (4787200 samples); 4676 packets muxed (1560031 bytes); 
  Total: 7665 packets (67694678 bytes) muxed
[AVIOContext @ 0x56029669be00] Statistics: 2 seeks, 262 writeouts
[libx264 @ 0x5602966723c0] frame I:20    Avg QP:17.01  size: 98146
[libx264 @ 0x5602966723c0] frame P:902   Avg QP:19.85  size: 42335
[libx264 @ 0x5602966723c0] frame B:2067  Avg QP:22.25  size: 12571
[libx264 @ 0x5602966723c0] consecutive B-frames:  1.5% 17.7%  3.6% 77.2%
[libx264 @ 0x5602966723c0] mb I  I16..4: 10.3% 20.6% 69.1%
[libx264 @ 0x5602966723c0] mb P  I16..4:  5.4% 15.6% 10.9%  P16..4: 28.4% 19.2% 14.4%  0.0%  0.0%    skip: 6.1%
[libx264 @ 0x5602966723c0] mb B  I16..4:  1.1%  1.9%  0.8%  B16..8: 21.7% 12.3%  2.4%  direct:11.6%  skip:48.2%  L0:41.9% L1:40.9% BI:17.2%
[libx264 @ 0x5602966723c0] 8x8 transform intra:47.8% inter:30.4%
[libx264 @ 0x5602966723c0] coded y,uvDC,uvAC intra: 68.7% 58.1% 22.9% inter: 23.3% 15.4% 1.6%
[libx264 @ 0x5602966723c0] i16 v,h,dc,p: 43% 29% 19%  9%
[libx264 @ 0x5602966723c0] i8 v,h,dc,ddl,ddr,vr,hd,vl,hu: 30% 22% 15%  5%  6%  7%  6%  6%  5%
[libx264 @ 0x5602966723c0] i4 v,h,dc,ddl,ddr,vr,hd,vl,hu: 28% 19% 10%  6%  8%  9%  7%  7%  6%
[libx264 @ 0x5602966723c0] i8c dc,h,v,p: 49% 20% 25%  6%
[libx264 @ 0x5602966723c0] Weighted P-Frames: Y:9.2% UV:2.1%
[libx264 @ 0x5602966723c0] kb/s:5304.88
[aac @ 0x5602966979c0] Qavg: 2224.411
[AVIOContext @ 0x560296669040] Statistics: 152673241 bytes read, 0 seeks
[AVIOContext @ 0x5602966753c0] Statistics: 111578 bytes read, 0 seeks
